<?xml version="1.0" encoding="utf-8"?>
<!-- Generator: Adobe Illustrator 16.0.0, SVG Export Plug-In . SVG Version: 6.00 Build 0)  -->
<!DOCTYPE svg PUBLIC "-//W3C//DTD SVG 1.1//EN" "http://www.w3.org/Graphics/SVG/1.1/DTD/svg11.dtd">
<svg version="1.1" id="layer_1" xmlns="http://www.w3.org/2000/svg" xmlns:xlink="http://www.w3.org/1999/xlink" x="0px"
	 y="0px" width="1037.28px" height="318.046px" viewBox="0 0 1037.28 318.046" enable-background="new 0 0 1037.28 318.046"
	 xml:space="preserve">
<polygon fill="#3B73B9" points="102.949,2.11 6.885,160.803 102.949,217.765 "/>
<polygon fill="#3A6489" points="113.32,2.11 209.38,160.803 113.32,217.765 "/>
<polygon fill="#3B73B9" points="102.949,238.262 6.885,181.606 102.949,316.085 "/>
<polygon fill="#3A6489" points="113.32,238.262 209.38,181.606 113.32,316.085 "/>
<polygon fill="#3A6489" points="6.885,160.802 102.949,217.765 102.949,117.245 "/>
<polygon fill="#24485B" points="209.38,160.802 113.32,217.765 113.32,117.245 "/>
<polygon fill="#595758" points="383.661,103.363 383.661,113.28 325.447,113.28 325.447,154.539 380.299,154.539 380.299,164.456
	325.447,164.456 325.447,208.757 384.78,208.757 384.78,218.667 314.246,218.667 314.246,103.363 "/>
<g>
	<defs>
		<rect id="SVGID_1_" width="1037.279" height="318.046"/>
	</defs>
	<clipPath id="SVGID_2_">
		<use xlink:href="#SVGID_1_"  overflow="visible"/>
	</clipPath>
	<path clip-path="url(#SVGID_2_)" fill="#595758" d="M414.525,141.747h-14.712v-9.277h14.712v-22.229h10.877v22.229h23.829v9.277
		h-23.829v52.45c0,11.671,3.516,15.841,12.149,15.841c4.324,0,8.16-0.486,12.158-1.605l1.602,8.962
		c-3.362,1.273-9.92,2.077-14.554,2.077c-15.033,0-22.232-6.084-22.232-24.786V141.747z"/>
	<path clip-path="url(#SVGID_2_)" fill="#595758" d="M537.988,160.617v58.05h-10.876v-55.33c0-12.316-4.635-22.553-21.749-22.553
		c-14.554,0-24.632,11.841-24.632,21.91v55.974H469.86V97.765h10.871v46.698c3.999-6.557,12.637-13.591,26.23-13.591
		C526.635,130.872,537.988,142.706,537.988,160.617"/>
	<path clip-path="url(#SVGID_2_)" fill="#595758" d="M626.742,210.191c-6.874,4.803-16.789,9.757-31.339,9.757
		c-22.872,0-36.464-14.388-36.464-39.497v-10.715c0-24.47,13.434-38.867,35.024-38.867c22.385,0,34.705,15.036,34.705,39.183v8.954
		h-58.854v1.445c0,19.026,9.916,29.903,25.748,29.903c11.512,0,20.149-3.999,26.387-8.485L626.742,210.191z M617.793,169.89v-1.436
		c0-17.909-8.796-27.989-23.829-27.989c-15.194,0-24.149,11.041-24.149,27.989v1.436H617.793z"/>
	<path clip-path="url(#SVGID_2_)" fill="#595758" d="M694.555,143.665c-2.879-1.12-6.236-1.763-10.394-1.763
		c-14.233,0-23.192,11.68-23.192,27.834v48.932h-10.872V132.47h10.714v15.191c3.68-8.318,11.676-16.793,24.795-16.793
		c4.793,0,8.792,0.481,12.312,1.76L694.555,143.665z"/>
	<path clip-path="url(#SVGID_2_)" fill="#595758" d="M790.994,113.118l-5.759,8.796c-10.398-7.352-19.031-9.755-30.707-9.755
		c-21.269,0-32.944,16.471-32.944,40.62v14.713c0,28.312,12.794,42.221,34.064,42.221c14.392,0,24.148-5.281,31.667-11.843
		l6.554,8.811c-8.476,7.671-20.15,13.746-38.384,13.746c-29.903,0-45.257-19.505-45.257-52.935V153.26
		c0-32.625,16.311-51.657,44.3-51.657C769.883,101.603,781.395,105.758,790.994,113.118"/>
	<path clip-path="url(#SVGID_2_)" fill="#595758" d="M881.033,170.053v10.714c0,24.794-13.598,39.181-36.628,39.181
		c-23.029,0-36.623-14.387-36.623-39.181v-10.714c0-24.951,13.594-39.186,36.623-39.186
		C867.436,130.867,881.033,145.267,881.033,170.053 M869.995,180.125v-9.433c0-20.308-9.753-30.23-25.59-30.23
		c-15.831,0-25.589,9.922-25.589,30.23v9.433c0,20.317,9.758,30.229,25.589,30.229C860.242,210.354,869.995,200.442,869.995,180.125
		"/>
	<path clip-path="url(#SVGID_2_)" fill="#595758" d="M947.082,143.665c-2.879-1.12-6.237-1.763-10.397-1.763
		c-14.234,0-23.188,11.68-23.188,27.834v48.932h-10.877V132.47h10.719v15.191c3.68-8.318,11.671-16.793,24.786-16.793
		c4.797,0,8.796,0.481,12.315,1.76L947.082,143.665z"/>
	<path clip-path="url(#SVGID_2_)" fill="#595758" d="M1028.967,210.191c-6.878,4.803-16.793,9.757-31.348,9.757
		c-22.872,0-36.465-14.388-36.465-39.497v-10.715c0-24.47,13.435-38.867,35.025-38.867c22.39,0,34.705,15.036,34.705,39.183v8.954
		H972.03v1.445c0,19.026,9.916,29.903,25.742,29.903c11.521,0,20.155-3.999,26.393-8.485L1028.967,210.191z M1020.009,169.89v-1.436
		c0-17.909-8.796-27.989-23.829-27.989c-15.195,0-24.149,11.041-24.149,27.989v1.436H1020.009z"/>
</g>
</svg>
